<svg width="74" height="26" viewBox="0 0 74 26" fill="none" xmlns="http://www.w3.org/2000/svg">
<path d="M12.044 17V12.44H11.06V11.048H12.044V10.076C12.044 9.604 12.124 9.236 12.284 8.972C12.444 8.708 12.692 8.524 13.028 8.42C13.364 8.316 13.8 8.264 14.336 8.264H15.164V9.704H14.66C14.34 9.704 14.128 9.736 14.024 9.8C13.92 9.864 13.868 10.012 13.868 10.244V11.048H15.164V12.44H13.868V17H12.044ZM17.465 17.144C17.089 17.144 16.745 17.072 16.433 16.928C16.121 16.784 15.873 16.584 15.689 16.328C15.505 16.064 15.413 15.752 15.413 15.392C15.413 14.904 15.581 14.516 15.917 14.228C16.261 13.94 16.729 13.724 17.321 13.58C17.913 13.436 18.593 13.336 19.361 13.28C19.361 12.856 19.293 12.556 19.157 12.38C19.021 12.204 18.757 12.116 18.365 12.116C18.117 12.116 17.897 12.176 17.705 12.296C17.521 12.408 17.397 12.584 17.333 12.824L15.797 12.272C15.997 11.872 16.329 11.54 16.793 11.276C17.265 11.012 17.841 10.88 18.521 10.88C19.369 10.88 20.021 11.068 20.477 11.444C20.933 11.82 21.161 12.46 21.161 13.364V14.672C21.161 14.928 21.169 15.204 21.185 15.5C21.201 15.796 21.225 16.076 21.257 16.34C21.289 16.604 21.325 16.824 21.365 17H19.673L19.457 16.28C19.233 16.592 18.949 16.816 18.605 16.952C18.269 17.08 17.889 17.144 17.465 17.144ZM18.137 15.896C18.497 15.896 18.797 15.8 19.037 15.608C19.277 15.416 19.397 15.048 19.397 14.504V14.36C18.765 14.416 18.257 14.504 17.873 14.624C17.489 14.736 17.297 14.948 17.297 15.26C17.297 15.452 17.377 15.608 17.537 15.728C17.697 15.84 17.897 15.896 18.137 15.896ZM25.0938 17.144C24.4378 17.144 23.8818 17.012 23.4258 16.748C22.9778 16.484 22.6338 16.116 22.3938 15.644C22.1618 15.164 22.0458 14.612 22.0458 13.988C22.0458 13.364 22.1738 12.82 22.4298 12.356C22.6858 11.884 23.0418 11.52 23.4978 11.264C23.9618 11.008 24.4938 10.88 25.0938 10.88C25.4378 10.88 25.7778 10.928 26.1138 11.024C26.4578 11.12 26.7738 11.284 27.0618 11.516C27.3578 11.74 27.5978 12.048 27.7818 12.44L26.2578 12.992C26.1618 12.736 26.0178 12.556 25.8258 12.452C25.6418 12.348 25.4338 12.296 25.2018 12.296C24.9858 12.296 24.7778 12.352 24.5778 12.464C24.3778 12.568 24.2138 12.744 24.0858 12.992C23.9658 13.24 23.9058 13.576 23.9058 14C23.9058 14.432 23.9698 14.776 24.0978 15.032C24.2258 15.28 24.3858 15.46 24.5778 15.572C24.7778 15.676 24.9858 15.728 25.2018 15.728C25.4578 15.728 25.6738 15.68 25.8498 15.584C26.0258 15.48 26.1658 15.34 26.2698 15.164L27.7578 15.704C27.5578 16.064 27.3098 16.352 27.0138 16.568C26.7178 16.776 26.4018 16.924 26.0658 17.012C25.7378 17.1 25.4138 17.144 25.0938 17.144ZM31.5442 17.144C30.9042 17.144 30.3362 17.02 29.8402 16.772C29.3522 16.516 28.9682 16.152 28.6882 15.68C28.4162 15.208 28.2802 14.644 28.2802 13.988C28.2802 13.356 28.4242 12.808 28.7122 12.344C29.0082 11.88 29.3962 11.52 29.8762 11.264C30.3642 11.008 30.8962 10.88 31.4722 10.88C32.1282 10.88 32.6882 11.036 33.1522 11.348C33.6242 11.652 33.9802 12.076 34.2202 12.62C34.4602 13.156 34.5602 13.776 34.5202 14.48H30.1162C30.1482 14.896 30.3002 15.208 30.5722 15.416C30.8522 15.624 31.1602 15.728 31.4962 15.728C31.7762 15.728 32.0162 15.688 32.2162 15.608C32.4242 15.52 32.5842 15.412 32.6962 15.284L34.1482 15.812C33.8362 16.268 33.4442 16.604 32.9722 16.82C32.5082 17.036 32.0322 17.144 31.5442 17.144ZM30.1162 13.4H32.8282C32.8202 13.016 32.6882 12.728 32.4322 12.536C32.1762 12.336 31.8722 12.236 31.5202 12.236C31.1762 12.236 30.8682 12.328 30.5962 12.512C30.3322 12.696 30.1722 12.992 30.1162 13.4ZM39.0251 17.144C38.7051 17.144 38.3691 17.068 38.0171 16.916C37.6731 16.764 37.4051 16.524 37.2131 16.196L36.9851 17H35.3891V8.984H37.2131V11.864C37.4051 11.536 37.6731 11.292 38.0171 11.132C38.3691 10.964 38.7051 10.88 39.0251 10.88C39.5371 10.88 39.9891 11.004 40.3811 11.252C40.7811 11.5 41.0931 11.856 41.3171 12.32C41.5411 12.776 41.6531 13.328 41.6531 13.976C41.6531 14.624 41.5411 15.188 41.3171 15.668C41.0931 16.14 40.7811 16.504 40.3811 16.76C39.9891 17.016 39.5371 17.144 39.0251 17.144ZM38.4491 15.728C38.8011 15.728 39.1051 15.576 39.3611 15.272C39.6251 14.96 39.7571 14.528 39.7571 13.976C39.7571 13.432 39.6251 13.016 39.3611 12.728C39.1051 12.44 38.8011 12.296 38.4491 12.296C38.0891 12.296 37.7771 12.432 37.5131 12.704C37.2571 12.968 37.1291 13.404 37.1291 14.012C37.1291 14.628 37.2571 15.068 37.5131 15.332C37.7771 15.596 38.0891 15.728 38.4491 15.728ZM45.3815 17.144C44.8295 17.144 44.3135 17.032 43.8335 16.808C43.3535 16.584 42.9655 16.24 42.6695 15.776C42.3735 15.304 42.2255 14.712 42.2255 14C42.2255 13.28 42.3735 12.692 42.6695 12.236C42.9655 11.772 43.3535 11.432 43.8335 11.216C44.3135 10.992 44.8295 10.88 45.3815 10.88C45.9255 10.88 46.4375 10.992 46.9175 11.216C47.3975 11.432 47.7855 11.772 48.0815 12.236C48.3775 12.692 48.5255 13.28 48.5255 14C48.5255 14.712 48.3775 15.304 48.0815 15.776C47.7855 16.24 47.3975 16.584 46.9175 16.808C46.4375 17.032 45.9255 17.144 45.3815 17.144ZM45.3815 15.728C45.7495 15.728 46.0535 15.596 46.2935 15.332C46.5415 15.068 46.6655 14.624 46.6655 14C46.6655 13.368 46.5375 12.928 46.2815 12.68C46.0335 12.424 45.7335 12.296 45.3815 12.296C45.0215 12.296 44.7135 12.424 44.4575 12.68C44.2095 12.928 44.0855 13.368 44.0855 14C44.0855 14.624 44.2095 15.068 44.4575 15.332C44.7055 15.596 45.0135 15.728 45.3815 15.728ZM52.2604 17.144C51.7084 17.144 51.1924 17.032 50.7124 16.808C50.2324 16.584 49.8444 16.24 49.5484 15.776C49.2524 15.304 49.1044 14.712 49.1044 14C49.1044 13.28 49.2524 12.692 49.5484 12.236C49.8444 11.772 50.2324 11.432 50.7124 11.216C51.1924 10.992 51.7084 10.88 52.2604 10.88C52.8044 10.88 53.3164 10.992 53.7964 11.216C54.2764 11.432 54.6644 11.772 54.9604 12.236C55.2564 12.692 55.4044 13.28 55.4044 14C55.4044 14.712 55.2564 15.304 54.9604 15.776C54.6644 16.24 54.2764 16.584 53.7964 16.808C53.3164 17.032 52.8044 17.144 52.2604 17.144ZM52.2604 15.728C52.6284 15.728 52.9324 15.596 53.1724 15.332C53.4204 15.068 53.5444 14.624 53.5444 14C53.5444 13.368 53.4164 12.928 53.1604 12.68C52.9124 12.424 52.6124 12.296 52.2604 12.296C51.9004 12.296 51.5924 12.424 51.3364 12.68C51.0884 12.928 50.9644 13.368 50.9644 14C50.9644 14.624 51.0884 15.068 51.3364 15.332C51.5844 15.596 51.8924 15.728 52.2604 15.728ZM56.2953 17V8.984H58.1193V13.304L60.1113 11.048H62.2713L59.9433 13.532L62.4513 17H60.2913L58.7433 14.84L58.1193 15.5V17H56.2953Z" fill="#888282"/>
</svg>
