<svg width="74" height="26" viewBox="0 0 74 26" fill="none" xmlns="http://www.w3.org/2000/svg">
<path d="M15.5295 17.144C14.7455 17.144 14.0695 16.976 13.5015 16.64C12.9335 16.296 12.4935 15.812 12.1815 15.188C11.8775 14.556 11.7255 13.816 11.7255 12.968C11.7255 12.12 11.8975 11.388 12.2415 10.772C12.5855 10.156 13.0615 9.68 13.6695 9.344C14.2855 9.008 14.9975 8.84 15.8055 8.84C16.5095 8.84 17.1415 8.98 17.7015 9.26C18.2695 9.54 18.7135 9.952 19.0335 10.496L17.4015 11.168C17.2735 10.96 17.0735 10.78 16.8015 10.628C16.5375 10.476 16.1975 10.4 15.7815 10.4C15.4055 10.4 15.0615 10.496 14.7495 10.688C14.4375 10.88 14.1895 11.168 14.0055 11.552C13.8215 11.928 13.7295 12.4 13.7295 12.968C13.7295 13.808 13.9215 14.456 14.3055 14.912C14.6895 15.36 15.1935 15.584 15.8175 15.584C16.1135 15.584 16.3975 15.544 16.6695 15.464C16.9415 15.376 17.1655 15.232 17.3415 15.032C17.5175 14.832 17.6055 14.564 17.6055 14.228V14H15.8055V12.464H19.5015V17H18.2535L17.9895 16.112C17.4775 16.8 16.6575 17.144 15.5295 17.144ZM23.3745 17.144C22.8225 17.144 22.3065 17.032 21.8265 16.808C21.3465 16.584 20.9585 16.24 20.6625 15.776C20.3665 15.304 20.2185 14.712 20.2185 14C20.2185 13.28 20.3665 12.692 20.6625 12.236C20.9585 11.772 21.3465 11.432 21.8265 11.216C22.3065 10.992 22.8225 10.88 23.3745 10.88C23.9185 10.88 24.4305 10.992 24.9105 11.216C25.3905 11.432 25.7785 11.772 26.0745 12.236C26.3705 12.692 26.5185 13.28 26.5185 14C26.5185 14.712 26.3705 15.304 26.0745 15.776C25.7785 16.24 25.3905 16.584 24.9105 16.808C24.4305 17.032 23.9185 17.144 23.3745 17.144ZM23.3745 15.728C23.7425 15.728 24.0465 15.596 24.2865 15.332C24.5345 15.068 24.6585 14.624 24.6585 14C24.6585 13.368 24.5305 12.928 24.2745 12.68C24.0265 12.424 23.7265 12.296 23.3745 12.296C23.0145 12.296 22.7065 12.424 22.4505 12.68C22.2025 12.928 22.0785 13.368 22.0785 14C22.0785 14.624 22.2025 15.068 22.4505 15.332C22.6985 15.596 23.0065 15.728 23.3745 15.728ZM30.2534 17.144C29.7014 17.144 29.1854 17.032 28.7054 16.808C28.2254 16.584 27.8374 16.24 27.5414 15.776C27.2454 15.304 27.0974 14.712 27.0974 14C27.0974 13.28 27.2454 12.692 27.5414 12.236C27.8374 11.772 28.2254 11.432 28.7054 11.216C29.1854 10.992 29.7014 10.88 30.2534 10.88C30.7974 10.88 31.3094 10.992 31.7894 11.216C32.2694 11.432 32.6574 11.772 32.9534 12.236C33.2494 12.692 33.3974 13.28 33.3974 14C33.3974 14.712 33.2494 15.304 32.9534 15.776C32.6574 16.24 32.2694 16.584 31.7894 16.808C31.3094 17.032 30.7974 17.144 30.2534 17.144ZM30.2534 15.728C30.6214 15.728 30.9254 15.596 31.1654 15.332C31.4134 15.068 31.5374 14.624 31.5374 14C31.5374 13.368 31.4094 12.928 31.1534 12.68C30.9054 12.424 30.6054 12.296 30.2534 12.296C29.8934 12.296 29.5854 12.424 29.3294 12.68C29.0814 12.928 28.9574 13.368 28.9574 14C28.9574 14.624 29.0814 15.068 29.3294 15.332C29.5774 15.596 29.8854 15.728 30.2534 15.728ZM37.2044 19.436C36.8764 19.436 36.5444 19.392 36.2084 19.304C35.8724 19.224 35.5604 19.08 35.2724 18.872C34.9844 18.664 34.7484 18.38 34.5644 18.02L36.0524 17.48C36.1644 17.696 36.3244 17.844 36.5324 17.924C36.7404 18.004 36.9484 18.044 37.1564 18.044C37.5404 18.044 37.8484 17.952 38.0804 17.768C38.3124 17.592 38.4284 17.308 38.4284 16.916V15.848C38.1724 16.168 37.8764 16.404 37.5404 16.556C37.2124 16.708 36.8804 16.784 36.5444 16.784C36.1124 16.784 35.7004 16.668 35.3084 16.436C34.9164 16.204 34.5964 15.872 34.3484 15.44C34.1004 15.008 33.9764 14.492 33.9764 13.892C33.9764 13.196 34.1004 12.628 34.3484 12.188C34.5964 11.74 34.9124 11.408 35.2964 11.192C35.6804 10.976 36.0764 10.868 36.4844 10.868C36.8604 10.868 37.2204 10.952 37.5644 11.12C37.9164 11.288 38.2044 11.536 38.4284 11.864L38.6684 11.048H40.2404V16.556C40.2404 17.548 39.9724 18.276 39.4364 18.74C38.9004 19.204 38.1564 19.436 37.2044 19.436ZM37.1924 15.368C37.4324 15.368 37.6484 15.324 37.8404 15.236C38.0404 15.14 38.2004 14.98 38.3204 14.756C38.4404 14.532 38.5004 14.228 38.5004 13.844C38.5004 13.26 38.3684 12.856 38.1044 12.632C37.8484 12.408 37.5444 12.296 37.1924 12.296C36.8324 12.296 36.5204 12.416 36.2564 12.656C36.0004 12.896 35.8724 13.276 35.8724 13.796C35.8724 14.324 36.0004 14.72 36.2564 14.984C36.5204 15.24 36.8324 15.368 37.1924 15.368ZM43.4165 17C42.9285 17 42.5405 16.96 42.2525 16.88C41.9645 16.792 41.7565 16.628 41.6285 16.388C41.5085 16.14 41.4485 15.784 41.4485 15.32V8.984H43.2725V14.84C43.2725 15.12 43.3285 15.304 43.4405 15.392C43.5525 15.472 43.7605 15.512 44.0645 15.512H44.5805V17H43.4165Z" fill="#888282"/>
<path d="M51.2732 16.0605C50.7992 16.4906 50.2927 16.7827 49.7538 16.937C49.2153 17.0801 48.679 17.0753 48.145 16.9227C47.617 16.7647 47.126 16.4489 46.6721 15.9753C46.2348 15.519 45.9623 15.0266 45.8545 14.4981C45.7527 13.9642 45.7909 13.4436 45.9693 12.9363C46.1536 12.4235 46.459 11.9736 46.8856 11.5866C47.3714 11.1458 47.8941 10.8821 48.4536 10.7956C49.0135 10.6979 49.5705 10.7648 50.1247 10.9963C50.6733 11.222 51.1764 11.6024 51.6339 12.1375L48.3723 15.0968C48.6838 15.3756 49.0123 15.4987 49.3577 15.4661C49.7089 15.4282 50.009 15.2963 50.2579 15.0705C50.4652 14.8824 50.6153 14.6922 50.708 14.5001C50.8012 14.2968 50.845 14.1113 50.8393 13.9436L52.28 13.3491C52.3645 13.888 52.3067 14.394 52.1066 14.8671C51.9124 15.3348 51.6346 15.7326 51.2732 16.0605ZM47.625 14.3171L49.6335 12.4948C49.3619 12.2229 49.0648 12.1037 48.7424 12.1371C48.4144 12.1647 48.1201 12.2968 47.8594 12.5333C47.6046 12.7645 47.4402 13.0378 47.366 13.3535C47.2978 13.6637 47.3842 13.9849 47.625 14.3171Z" fill="#7E7B7B"/>
</svg>
